<svg width="20" height="21" viewBox="0 0 20 21" fill="none" xmlns="http://www.w3.org/2000/svg">
<g clip-path="url(#clip0_432_329)">
<path d="M10 1.19141C4.762 1.19141 0.5 5.45341 0.5 10.6914C0.5 15.9294 4.762 20.1914 10 20.1914C15.238 20.1914 19.5 15.9294 19.5 10.6914C19.5 5.4534 15.238 1.19141 10 1.19141ZM15.942 15.9774C14.388 14.3974 12.248 13.4854 10 13.4854V13.4834C7.752 13.4834 5.612 14.3974 4.058 15.9774C2.804 14.5714 2.042 12.7194 2.042 10.6914C2.042 6.30341 5.612 2.7334 10 2.7334C14.388 2.7334 17.958 6.30341 17.958 10.6914C17.958 12.7194 17.196 14.5714 15.942 15.9774Z" fill="#B0987D"/>
<path d="M9.99922 13.4193C12.1993 13.4193 13.9828 11.6358 13.9828 9.43575C13.9828 7.23567 12.1993 5.45215 9.99922 5.45215C7.79914 5.45215 6.01562 7.23567 6.01562 9.43575C6.01562 11.6358 7.79914 13.4193 9.99922 13.4193Z" fill="#B0987D"/>
</g>
<defs>
<clipPath id="clip0_432_329">
<rect width="20" height="20" fill="white" transform="translate(0 0.691406)"/>
</clipPath>
</defs>
</svg>
